<svg width="352" height="140" viewBox="0 0 352 140" fill="none" xmlns="http://www.w3.org/2000/svg">
<path d="M33.3984 23.2344C33.8672 22.2031 34.5234 21.3828 35.3672 20.7734C36.2109 20.1172 37.1719 19.7891 38.25 19.7891C38.625 19.7891 39.1172 19.9063 39.7266 20.1406C40.3359 20.375 40.6406 20.75 40.6406 21.2656C40.6406 21.6406 40.5938 21.9922 40.5 22.3203C40.4531 22.6016 40.3828 23 40.2891 23.5156C39.4453 27.5 38.6953 31.5547 38.0391 35.6797C37.4297 39.8047 36.8906 43.8594 36.4219 47.8438C35.9531 51.8281 35.5547 55.6719 35.2266 59.375C34.9453 63.0312 34.7109 66.4297 34.5234 69.5703C34.3828 72.7109 34.2656 75.5 34.1719 77.9375C34.125 80.3281 34.1016 82.25 34.1016 83.7031C34.1016 86.0469 34.0781 88.4375 34.0312 90.875C34.0312 93.3125 34.0312 95.6094 34.0312 97.7656C34.0312 99.875 34.0078 101.75 33.9609 103.391C33.9609 105.031 33.9609 106.203 33.9609 106.906C33.9609 107.094 33.9609 107.352 33.9609 107.68C33.9609 108.008 33.9141 108.312 33.8203 108.594C33.7266 108.922 33.5625 109.203 33.3281 109.438C33.1406 109.672 32.8594 109.789 32.4844 109.789C31.875 109.789 31.3125 109.672 30.7969 109.438C30.2812 109.203 29.7891 108.922 29.3203 108.594C28.8516 108.312 28.3828 108.055 27.9141 107.82C27.4922 107.586 27.0703 107.469 26.6484 107.469C26.1328 107.469 25.7109 107.633 25.3828 107.961C25.0547 108.289 24.6562 108.453 24.1875 108.453C23.625 108.453 23.1797 108.312 22.8516 108.031C22.5234 107.75 22.2891 107.398 22.1484 106.977C22.0078 106.555 21.9141 106.109 21.8672 105.641C21.8672 105.172 21.8672 104.75 21.8672 104.375C21.8672 103.484 21.8672 102.078 21.8672 100.156C21.9141 98.2344 21.9609 96.0781 22.0078 93.6875C22.1016 91.25 22.1953 88.7188 22.2891 86.0938C22.3828 83.4219 22.4766 80.9141 22.5703 78.5703C22.7109 75.8516 22.875 72.9453 23.0625 69.8516C23.2969 66.7109 23.5547 63.5938 23.8359 60.5C24.1172 57.4062 24.3984 54.4062 24.6797 51.5C25.0078 48.5469 25.2891 45.875 25.5234 43.4844C25.8047 41.0469 26.0391 38.9844 26.2266 37.2969C26.4609 35.6094 26.625 34.4375 26.7188 33.7812C27.0469 31.7187 27.375 29.9609 27.7031 28.5078C28.0781 27.0547 28.4766 26.0703 28.8984 25.5547C29.2266 25.1328 29.625 24.7578 30.0938 24.4297C30.4688 24.1484 30.9375 23.8906 31.5 23.6562C32.0625 23.375 32.6953 23.2344 33.3984 23.2344ZM43.1016 12.0547C39.6328 12.0547 36.0938 12.4297 32.4844 13.1797C28.875 13.8828 25.5938 15.0547 22.6406 16.6953C19.6875 18.3359 17.25 20.5156 15.3281 23.2344C13.4531 25.9062 12.5156 29.2344 12.5156 33.2188C12.5156 35.2812 12.7734 37.25 13.2891 39.125C13.8047 41 14.4141 42.7109 15.1172 44.2578C15.8203 45.8047 16.5234 47.1406 17.2266 48.2656C17.9297 49.3438 18.4922 50.1406 18.9141 50.6562C19.1484 50.9375 19.3594 51.2656 19.5469 51.6406C19.7344 52.0156 19.8281 52.3438 19.8281 52.625C19.8281 53 19.6641 53.3281 19.3359 53.6094C19.0547 53.8906 18.5156 54.0312 17.7188 54.0312C16.5938 54.0312 15.0938 53.6562 13.2188 52.9062C11.3906 52.1094 9.58594 50.9141 7.80469 49.3203C6.07031 47.7266 4.57031 45.6875 3.30469 43.2031C2.03906 40.7188 1.40625 37.7891 1.40625 34.4141C1.40625 32.0234 1.875 29.5391 2.8125 26.9609C3.75 24.3828 5.10938 21.8516 6.89062 19.3672C8.71875 16.8359 10.9453 14.4453 13.5703 12.1953C16.2422 9.94531 19.2656 7.97656 22.6406 6.28906C26.0625 4.60156 29.8125 3.26562 33.8906 2.28125C38.0156 1.25 42.4688 0.734375 47.25 0.734375C53.625 0.734375 59.2031 1.76563 63.9844 3.82812C68.7656 5.84375 72.75 8.53906 75.9375 11.9141C79.125 15.2891 81.5156 19.1797 83.1094 23.5859C84.75 27.9922 85.5703 32.5859 85.5703 37.3672C85.5703 43.2266 84.5625 48.5234 82.5469 53.2578C80.5781 57.9922 77.7188 62.0234 73.9688 65.3516C70.2188 68.6797 65.6484 71.2578 60.2578 73.0859C54.8672 74.8672 48.7734 75.7578 41.9766 75.7578C41.4609 75.7578 40.8984 75.7812 40.2891 75.8281C39.7266 75.8281 39.1875 75.7812 38.6719 75.6875C38.2031 75.5469 37.8047 75.3594 37.4766 75.125C37.1953 74.8438 37.0547 74.4219 37.0547 73.8594C37.0547 73.3438 37.1953 72.8516 37.4766 72.3828C37.7578 71.9141 38.1562 71.6562 38.6719 71.6094C44.7188 71.1406 49.8047 70.0391 53.9297 68.3047C58.0547 66.5703 61.3594 64.3672 63.8438 61.6953C66.375 58.9766 68.1797 55.8594 69.2578 52.3438C70.3828 48.7812 70.9453 44.9609 70.9453 40.8828C70.9453 35.7266 70.2188 31.3203 68.7656 27.6641C67.3125 24.0078 65.3203 21.0313 62.7891 18.7344C60.2578 16.3906 57.3047 14.7031 53.9297 13.6719C50.5547 12.5938 46.9453 12.0547 43.1016 12.0547ZM117.352 74.3516C117.633 74.3516 117.867 74.4453 118.055 74.6328C118.289 74.8203 118.406 75.1016 118.406 75.4766C118.406 75.8516 118.336 76.2031 118.195 76.5312C117.492 78.5 116.719 80.3516 115.875 82.0859C115.078 83.8203 114.328 85.3672 113.625 86.7266C112.781 88.2734 111.961 89.7266 111.164 91.0859C110.18 92.6328 109.078 94.1094 107.859 95.5156C106.688 96.875 105.398 98.0938 103.992 99.1719C102.586 100.203 101.062 101.023 99.4219 101.633C97.7812 102.242 96.0469 102.547 94.2188 102.547C92.8594 102.547 91.3594 102.312 89.7188 101.844C88.125 101.375 86.625 100.508 85.2188 99.2422C83.8594 97.9766 82.7344 96.2422 81.8438 94.0391C80.9062 91.8359 80.4375 89 80.4375 85.5312C80.4375 83.9375 80.6016 82.3203 80.9297 80.6797C81.2109 79.0391 81.6328 77.4688 82.1953 75.9688C82.7109 74.4688 83.2969 73.0625 83.9531 71.75C84.6562 70.4375 85.3594 69.2891 86.0625 68.3047C87.2812 66.6172 88.5703 65.0469 89.9297 63.5938C91.2891 62.0938 92.6484 60.8047 94.0078 59.7266C95.4141 58.6016 96.7734 57.7344 98.0859 57.125C99.3984 56.5156 100.617 56.2109 101.742 56.2109C103.523 56.2109 105.07 56.8906 106.383 58.25C107.742 59.6094 108.422 61.5547 108.422 64.0859C108.422 66.2891 107.859 68.5859 106.734 70.9766C105.609 73.3203 104.203 75.6172 102.516 77.8672C100.828 80.1172 99.0234 82.2031 97.1016 84.125C95.1797 86.0469 93.4219 87.6406 91.8281 88.9062C92.6719 91.0156 93.75 92.5625 95.0625 93.5469C96.375 94.5312 97.7109 95.0234 99.0703 95.0234C101.18 95.0234 103.055 94.3438 104.695 92.9844C106.383 91.625 107.883 89.9609 109.195 87.9922C110.555 86.0234 111.727 83.9609 112.711 81.8047C113.742 79.6484 114.656 77.75 115.453 76.1094C115.734 75.5469 116.016 75.125 116.297 74.8438C116.578 74.5156 116.93 74.3516 117.352 74.3516ZM90 77.7266C90 80.4922 90.2109 82.9297 90.6328 85.0391C91.5703 84.1016 92.5078 83.0469 93.4453 81.875C94.4297 80.6562 95.2969 79.4141 96.0469 78.1484C96.8438 76.8828 97.4766 75.5938 97.9453 74.2812C98.4609 72.9688 98.7188 71.7031 98.7188 70.4844C98.7188 68.6094 98.3203 67.1562 97.5234 66.125C96.7266 65.0938 95.9297 64.5781 95.1328 64.5781C94.6641 64.5781 94.125 64.8828 93.5156 65.4922C92.9531 66.0547 92.3906 66.8984 91.8281 68.0234C91.3125 69.1484 90.8672 70.5312 90.4922 72.1719C90.1641 73.7656 90 75.6172 90 77.7266ZM144.07 76.5312C142.57 80.8438 141.211 84.5938 139.992 87.7812C138.82 90.9688 137.625 93.6406 136.406 95.7969C135.188 97.9062 133.875 99.5 132.469 100.578C131.062 101.609 129.375 102.125 127.406 102.125C126.281 102.125 125.086 101.797 123.82 101.141C122.555 100.531 121.383 99.3359 120.305 97.5547C119.227 95.7734 118.336 93.2891 117.633 90.1016C116.93 86.8672 116.578 82.6719 116.578 77.5156C116.578 76.1562 116.625 74.375 116.719 72.1719C116.859 69.9219 117 67.4375 117.141 64.7188C117.328 61.9531 117.539 59.0469 117.773 56C118.008 52.9062 118.266 49.8125 118.547 46.7188C118.312 46.7656 118.102 46.8125 117.914 46.8594C117.727 46.8594 117.516 46.8594 117.281 46.8594C114.75 47.1406 112.898 47.3984 111.727 47.6328C110.555 47.8203 109.852 48.0312 109.617 48.2656C109.383 48.4531 109.266 48.6875 109.266 48.9688C109.266 49.2031 109.266 49.4375 109.266 49.6719C109.219 49.8594 109.148 50.0469 109.055 50.2344C108.914 50.375 108.656 50.4453 108.281 50.4453C108.047 50.4453 107.766 50.3984 107.438 50.3047C107.062 50.1641 106.711 49.9766 106.383 49.7422C106.008 49.4609 105.703 49.1328 105.469 48.7578C105.234 48.3359 105.117 47.8438 105.117 47.2812C105.117 46.7656 105.234 46.2266 105.469 45.6641C105.656 45.1016 105.914 44.5625 106.242 44.0469C106.57 43.4844 107.062 42.8047 107.719 42.0078C108.328 41.2109 109.172 40.4141 110.25 39.6172C111.281 38.7734 112.57 38 114.117 37.2969C115.664 36.5938 117.492 36.0312 119.602 35.6094C119.836 33.6406 120.07 31.9063 120.305 30.4062C120.586 28.8594 120.867 27.5 121.148 26.3281C121.43 25.1094 121.688 24.0312 121.922 23.0938C122.203 22.1094 122.484 21.2187 122.766 20.4219C123.328 18.5938 124.031 17.2109 124.875 16.2734C125.719 15.2891 126.68 14.2578 127.758 13.1797C128.93 12.0078 129.914 11.2344 130.711 10.8594C131.555 10.4375 132.188 10.2031 132.609 10.1562C133.031 10.1562 133.406 10.2969 133.734 10.5781C134.109 10.8125 134.297 11.2578 134.297 11.9141C134.297 12.2891 134.273 12.6172 134.227 12.8984C134.18 13.1328 134.133 13.3437 134.086 13.5312C133.945 14.0469 133.711 14.9609 133.383 16.2734C133.102 17.5859 132.75 19.2031 132.328 21.125C131.953 23 131.555 25.1328 131.133 27.5234C130.711 29.8672 130.336 32.375 130.008 35.0469C132.539 35.2344 134.648 35.5625 136.336 36.0312C138.07 36.4531 139.125 36.7109 139.5 36.8047C140.297 37.0859 140.836 37.3438 141.117 37.5781C141.398 37.8125 141.656 38.2109 141.891 38.7734C142.078 39.1484 142.289 39.4531 142.523 39.6875C142.805 39.9219 143.062 40.1328 143.297 40.3203C143.578 40.5078 143.812 40.7188 144 40.9531C144.188 41.1875 144.281 41.5156 144.281 41.9375C144.281 42.3125 144.188 42.6875 144 43.0625C143.812 43.3906 143.602 43.6016 143.367 43.6953C143.039 43.8828 142.43 44.0703 141.539 44.2578C140.648 44.3984 139.57 44.5625 138.305 44.75C137.039 44.8906 135.586 45.0547 133.945 45.2422C132.352 45.3828 130.688 45.5469 128.953 45.7344C128.391 51.5469 127.828 57.1484 127.266 62.5391C126.75 67.9297 126.492 72.7344 126.492 76.9531C126.492 79.1094 126.609 81.0781 126.844 82.8594C127.125 84.6406 127.523 86.1875 128.039 87.5C128.555 88.7656 129.164 89.75 129.867 90.4531C130.617 91.1562 131.461 91.5078 132.398 91.5078C133.242 91.5078 134.016 91.1328 134.719 90.3828C135.422 89.5859 136.125 88.5078 136.828 87.1484C137.531 85.7891 138.234 84.1719 138.938 82.2969C139.688 80.4219 140.484 78.3594 141.328 76.1094C141.75 74.9375 142.359 74.3516 143.156 74.3516C143.906 74.3516 144.281 74.7734 144.281 75.6172C144.281 75.7578 144.258 75.9219 144.211 76.1094C144.164 76.2969 144.117 76.4375 144.07 76.5312Z" fill="#9F53FF"/>
<path d="M217.055 24.3594C217.055 26.8906 216.727 29.3984 216.07 31.8828C215.461 34.3672 214.477 36.8047 213.117 39.1953C211.852 41.4453 210.328 43.3906 208.547 45.0312C206.812 46.6719 205.008 48.0547 203.133 49.1797C201.258 50.2578 199.406 51.0781 197.578 51.6406C195.797 52.1562 194.227 52.4141 192.867 52.4141C191.602 52.4141 190.617 52.2266 189.914 51.8516C189.258 51.4766 188.93 51.0078 188.93 50.4453C188.93 49.7891 189.516 49.2266 190.688 48.7578C191.438 48.4297 192.539 47.7734 193.992 46.7891C195.492 45.8047 196.969 44.4219 198.422 42.6406C199.922 40.8125 201.234 38.5625 202.359 35.8906C203.484 33.1719 204.047 29.9609 204.047 26.2578C204.047 22.9766 203.555 20.1875 202.57 17.8906C201.586 15.5937 200.297 13.7422 198.703 12.3359C197.109 10.8828 195.305 9.82812 193.289 9.17188C191.32 8.51563 189.328 8.1875 187.312 8.1875C183 8.1875 179.133 9.47656 175.711 12.0547C172.289 14.6328 169.383 18.1719 166.992 22.6719C164.602 27.125 162.773 32.375 161.508 38.4219C160.242 44.4219 159.609 50.8906 159.609 57.8281C159.609 62.9375 159.984 67.5547 160.734 71.6797C161.531 75.7578 162.586 79.3672 163.898 82.5078C165.211 85.6016 166.758 88.2734 168.539 90.5234C170.32 92.7266 172.195 94.5312 174.164 95.9375C176.133 97.3438 178.148 98.375 180.211 99.0312C182.32 99.6875 184.359 100.016 186.328 100.016C189.891 100.016 193.078 99.3828 195.891 98.1172C198.75 96.8047 201.281 95.0703 203.484 92.9141C205.734 90.7109 207.703 88.1797 209.391 85.3203C211.078 82.4141 212.555 79.3438 213.82 76.1094C214.055 75.5 214.359 75.0547 214.734 74.7734C215.156 74.4922 215.555 74.3516 215.93 74.3516C216.586 74.3516 216.914 74.7266 216.914 75.4766C216.914 75.8047 216.703 76.5781 216.281 77.7969C215.906 79.0156 215.344 80.4688 214.594 82.1562C213.891 83.8438 213.047 85.6719 212.062 87.6406C211.078 89.5625 210 91.4141 208.828 93.1953C205.312 98.5859 201.258 102.641 196.664 105.359C192.117 108.125 186.75 109.508 180.562 109.508C174.984 109.508 170.062 108.289 165.797 105.852C161.578 103.414 158.016 100.109 155.109 95.9375C152.25 91.7656 150.094 86.9141 148.641 81.3828C147.188 75.8516 146.461 70.0156 146.461 63.875C146.461 56.5156 147.211 49.8359 148.711 43.8359C150.211 37.8359 152.086 32.5391 154.336 27.9453C156.633 23.3516 159.094 19.4609 161.719 16.2734C164.391 13.0391 166.898 10.5078 169.242 8.67969C170.461 7.69531 171.914 6.6875 173.602 5.65625C175.289 4.625 177.141 3.71094 179.156 2.91406C181.172 2.07031 183.305 1.39062 185.555 0.875C187.852 0.3125 190.195 0.03125 192.586 0.03125C196.336 0.03125 199.711 0.6875 202.711 2C205.758 3.26562 208.336 5 210.445 7.20312C212.555 9.40625 214.172 11.9844 215.297 14.9375C216.469 17.8906 217.055 21.0313 217.055 24.3594ZM253.477 76.5312C252.07 80.75 250.758 84.4531 249.539 87.6406C248.32 90.7812 247.102 93.4297 245.883 95.5859C244.664 97.6953 243.352 99.2891 241.945 100.367C240.586 101.445 239.062 101.984 237.375 101.984C236.203 101.984 235.219 101.609 234.422 100.859C233.672 100.109 233.039 99.2656 232.523 98.3281C232.008 97.3906 231.609 96.5 231.328 95.6562C231.094 94.7656 230.93 94.1797 230.836 93.8984C230.789 93.8047 230.742 93.6641 230.695 93.4766C230.648 93.2891 230.578 93.1953 230.484 93.1953C230.391 93.1953 230.297 93.2656 230.203 93.4062C230.156 93.5469 230.086 93.6875 229.992 93.8281C229.852 94.1562 229.477 94.7656 228.867 95.6562C228.258 96.5469 227.484 97.4609 226.547 98.3984C225.656 99.3359 224.625 100.18 223.453 100.93C222.281 101.633 221.016 101.984 219.656 101.984C218.578 101.984 217.523 101.633 216.492 100.93C215.508 100.227 214.641 99.2891 213.891 98.1172C213.141 96.8984 212.555 95.4688 212.133 93.8281C211.664 92.1875 211.43 90.4297 211.43 88.5547C211.43 84.4766 212.086 80.6562 213.398 77.0938C214.664 73.4844 216.75 69.875 219.656 66.2656C221.062 64.5312 222.539 62.9844 224.086 61.625C225.68 60.2656 227.227 59.1406 228.727 58.25C230.227 57.3125 231.656 56.6094 233.016 56.1406C234.422 55.6719 235.617 55.4375 236.602 55.4375C237.258 55.4375 237.914 55.5547 238.57 55.7891C239.227 56.0234 239.812 56.4219 240.328 56.9844C240.844 57.5469 241.242 58.2969 241.523 59.2344C241.852 60.125 242.016 61.2266 242.016 62.5391C242.016 63.9453 241.781 65.4688 241.312 67.1094C240.891 68.75 240.234 70.2969 239.344 71.75C238.5 73.1562 237.445 74.3281 236.18 75.2656C234.914 76.2031 233.484 76.6719 231.891 76.6719C230.906 76.6719 230.414 76.2969 230.414 75.5469C230.414 75.0312 230.531 74.1875 230.766 73.0156C231.047 71.8438 231.188 70.7188 231.188 69.6406C231.188 69.2188 231.164 68.7266 231.117 68.1641C231.07 67.5547 230.953 66.9688 230.766 66.4062C230.578 65.8438 230.32 65.375 229.992 65C229.664 64.625 229.219 64.4375 228.656 64.4375C227.391 64.4375 226.289 65.0234 225.352 66.1953C224.414 67.3672 223.617 68.7969 222.961 70.4844C222.352 72.1719 221.883 73.9297 221.555 75.7578C221.227 77.5859 221.062 79.1562 221.062 80.4688C221.062 82.25 221.203 83.75 221.484 84.9688C221.766 86.1406 222.141 87.1016 222.609 87.8516C223.078 88.5547 223.617 89.0703 224.227 89.3984C224.836 89.6797 225.469 89.8203 226.125 89.8203C227.672 89.8203 229.055 89.3047 230.273 88.2734C231.492 87.1953 232.547 86.0234 233.438 84.7578C234.328 83.4453 235.055 82.2734 235.617 81.2422C236.227 80.1641 236.719 79.625 237.094 79.625C237.516 79.625 237.797 80.1172 237.938 81.1016C238.219 83.2109 238.523 84.9453 238.852 86.3047C239.18 87.6641 239.508 88.7422 239.836 89.5391C240.164 90.2891 240.492 90.8281 240.82 91.1562C241.195 91.4375 241.57 91.5781 241.945 91.5781C242.648 91.5781 243.352 91.1797 244.055 90.3828C244.758 89.5391 245.461 88.4141 246.164 87.0078C246.867 85.6016 247.594 83.9609 248.344 82.0859C249.094 80.2109 249.891 78.2188 250.734 76.1094C251.25 74.9375 251.859 74.3516 252.562 74.3516C253.266 74.3516 253.617 74.7734 253.617 75.6172C253.617 75.9453 253.57 76.25 253.477 76.5312ZM285.117 76.5312C284.039 80.1875 282.938 83.5625 281.812 86.6562C280.688 89.75 279.492 92.4219 278.227 94.6719C276.961 96.9219 275.555 98.6797 274.008 99.9453C272.508 101.211 270.797 101.844 268.875 101.844C266.531 101.844 264.633 100.672 263.18 98.3281C261.773 95.9375 261.07 92.7969 261.07 88.9062C261.07 87.2188 261.141 85.625 261.281 84.125C261.469 82.625 261.656 81.1719 261.844 79.7656C262.078 78.3594 262.266 77 262.406 75.6875C262.594 74.375 262.688 73.0859 262.688 71.8203C262.688 70.4609 262.523 69.5703 262.195 69.1484C261.867 68.7266 261.445 68.5156 260.93 68.5156C260.836 68.5156 260.742 68.5391 260.648 68.5859C260.555 68.5859 260.367 68.6094 260.086 68.6562C259.852 68.6562 259.477 68.7031 258.961 68.7969C258.492 68.8438 257.836 68.9141 256.992 69.0078C256.477 70.1328 256.055 71.0938 255.727 71.8906C255.398 72.6406 255.117 73.2969 254.883 73.8594C254.648 74.4219 254.438 74.9141 254.25 75.3359C254.109 75.7109 253.969 76.1094 253.828 76.5312C253.453 77.4219 253.125 77.9844 252.844 78.2188C252.562 78.4062 252.234 78.5 251.859 78.5C251.578 78.5 251.344 78.3828 251.156 78.1484C250.922 77.9141 250.805 77.5859 250.805 77.1641C250.805 76.8828 250.875 76.5547 251.016 76.1797C251.156 75.7578 251.32 75.2422 251.508 74.6328C251.742 73.9766 251.977 73.1562 252.211 72.1719C252.492 71.1875 252.773 69.9688 253.055 68.5156C252.117 68.0938 251.32 67.1094 250.664 65.5625C249.961 63.9688 249.609 62.1172 249.609 60.0078C249.609 58.2734 249.914 56.5156 250.523 54.7344C251.086 52.9531 251.789 51.3359 252.633 49.8828C253.523 48.3828 254.461 47.1641 255.445 46.2266C256.477 45.2891 257.391 44.8203 258.188 44.8203C259.219 44.8203 260.086 45.4531 260.789 46.7188C261.539 47.9375 261.914 49.3438 261.914 50.9375C261.914 51.7812 261.82 52.6484 261.633 53.5391C261.445 54.3828 261.234 55.1797 261 55.9297C260.812 56.6328 260.625 57.2891 260.438 57.8984C260.25 58.4609 260.156 58.9062 260.156 59.2344C260.156 59.6562 260.32 59.8672 260.648 59.8672C260.883 59.8672 261.305 59.75 261.914 59.5156L265.359 57.9688C266.625 57.4531 267.703 57.1953 268.594 57.1953C270.094 57.1953 271.078 57.6641 271.547 58.6016C272.062 59.5391 272.32 60.9219 272.32 62.75C272.32 63.5469 272.227 64.9531 272.039 66.9688C271.852 68.9375 271.641 71.1406 271.406 73.5781C271.219 75.9688 271.031 78.3594 270.844 80.75C270.703 83.1406 270.633 85.0859 270.633 86.5859C270.633 88.2266 270.797 89.4453 271.125 90.2422C271.5 90.9922 272.273 91.3672 273.445 91.3672C274.289 91.3672 275.109 90.875 275.906 89.8906C276.75 88.9062 277.547 87.6641 278.297 86.1641C279.047 84.6641 279.75 83.0234 280.406 81.2422C281.109 79.4609 281.742 77.75 282.305 76.1094C282.727 74.9375 283.336 74.3516 284.133 74.3516C284.883 74.3516 285.258 74.7734 285.258 75.6172C285.258 75.7578 285.234 75.8984 285.188 76.0391C285.188 76.1797 285.164 76.3438 285.117 76.5312ZM317.32 74.3516C317.602 74.3516 317.836 74.4453 318.023 74.6328C318.258 74.8203 318.375 75.1016 318.375 75.4766C318.375 75.8516 318.305 76.2031 318.164 76.5312C317.461 78.5 316.688 80.3516 315.844 82.0859C315.047 83.8203 314.297 85.3672 313.594 86.7266C312.75 88.2734 311.93 89.7266 311.133 91.0859C310.148 92.6328 309.047 94.1094 307.828 95.5156C306.656 96.875 305.367 98.0938 303.961 99.1719C302.555 100.203 301.031 101.023 299.391 101.633C297.75 102.242 296.016 102.547 294.188 102.547C292.828 102.547 291.328 102.312 289.688 101.844C288.094 101.375 286.594 100.508 285.188 99.2422C283.828 97.9766 282.703 96.2422 281.812 94.0391C280.875 91.8359 280.406 89 280.406 85.5312C280.406 83.9375 280.57 82.3203 280.898 80.6797C281.18 79.0391 281.602 77.4688 282.164 75.9688C282.68 74.4688 283.266 73.0625 283.922 71.75C284.625 70.4375 285.328 69.2891 286.031 68.3047C287.25 66.6172 288.539 65.0469 289.898 63.5938C291.258 62.0938 292.617 60.8047 293.977 59.7266C295.383 58.6016 296.742 57.7344 298.055 57.125C299.367 56.5156 300.586 56.2109 301.711 56.2109C303.492 56.2109 305.039 56.8906 306.352 58.25C307.711 59.6094 308.391 61.5547 308.391 64.0859C308.391 66.2891 307.828 68.5859 306.703 70.9766C305.578 73.3203 304.172 75.6172 302.484 77.8672C300.797 80.1172 298.992 82.2031 297.07 84.125C295.148 86.0469 293.391 87.6406 291.797 88.9062C292.641 91.0156 293.719 92.5625 295.031 93.5469C296.344 94.5312 297.68 95.0234 299.039 95.0234C301.148 95.0234 303.023 94.3438 304.664 92.9844C306.352 91.625 307.852 89.9609 309.164 87.9922C310.523 86.0234 311.695 83.9609 312.68 81.8047C313.711 79.6484 314.625 77.75 315.422 76.1094C315.703 75.5469 315.984 75.125 316.266 74.8438C316.547 74.5156 316.898 74.3516 317.32 74.3516ZM289.969 77.7266C289.969 80.4922 290.18 82.9297 290.602 85.0391C291.539 84.1016 292.477 83.0469 293.414 81.875C294.398 80.6562 295.266 79.4141 296.016 78.1484C296.812 76.8828 297.445 75.5938 297.914 74.2812C298.43 72.9688 298.688 71.7031 298.688 70.4844C298.688 68.6094 298.289 67.1562 297.492 66.125C296.695 65.0938 295.898 64.5781 295.102 64.5781C294.633 64.5781 294.094 64.8828 293.484 65.4922C292.922 66.0547 292.359 66.8984 291.797 68.0234C291.281 69.1484 290.836 70.5312 290.461 72.1719C290.133 73.7656 289.969 75.6172 289.969 77.7266Z" fill="#69BEEE"/>
<path d="M320.043 46.1582C319.466 44.1619 317.922 43.08 316.431 42.0341C315.134 41.1233 313.909 40.2629 313.158 38.799C311.091 34.745 309.967 32.3056 306.219 32.0956C302.471 31.8856 301.077 34.1847 298.564 37.9805C297.654 39.3544 296.334 40.0739 294.942 40.8355C293.343 41.7092 291.691 42.6096 290.893 44.5249C290.586 45.2145 290.409 45.9552 290.372 46.7093C290.194 49.8872 292.58 52.6148 295.384 52.7719C298.188 52.929 301.962 51.7218 305.117 51.8986C308.272 52.0754 311.836 53.6937 314.675 53.8528C317.514 54.0118 320.147 51.5654 320.325 48.3876C320.369 47.6334 320.274 46.8775 320.043 46.1582V46.1582Z" fill="#9F53FF"/>
<path d="M291.442 38.7795C293.854 38.9147 295.951 36.5098 296.125 33.4081C296.299 30.3063 294.484 27.6823 292.071 27.5471C289.659 27.4119 287.562 29.8168 287.388 32.9186C287.215 36.0203 289.029 38.6443 291.442 38.7795Z" fill="#9F53FF"/>
<path d="M300.598 31.7807C303.01 31.9159 305.107 29.511 305.281 26.4093C305.455 23.3075 303.64 20.6835 301.227 20.5483C298.815 20.4132 296.718 22.818 296.544 25.9198C296.371 29.0215 298.185 31.6455 300.598 31.7807Z" fill="#9F53FF"/>
<path d="M311.83 32.41C314.243 32.5452 316.339 30.1403 316.513 27.0385C316.687 23.9368 314.872 21.3128 312.459 21.1776C310.047 21.0424 307.95 23.4473 307.777 26.5491C307.603 29.6508 309.418 32.2748 311.83 32.41Z" fill="#9F53FF"/>
<path d="M320.147 40.3878C322.559 40.5229 324.656 38.1181 324.83 35.0163C325.004 31.9146 323.189 29.2906 320.776 29.1554C318.364 29.0202 316.267 31.4251 316.094 34.5268C315.92 37.6286 317.735 40.2526 320.147 40.3878Z" fill="#9F53FF"/>
<path d="M61.5574 122.001L57.3494 133.153H55.6694L51.4614 122.001H53.0134L56.5174 131.617L60.0214 122.001H61.5574ZM71.1539 128.433C71.1539 128.711 71.1379 129.004 71.1059 129.313H64.0979C64.1512 130.177 64.4445 130.855 64.9779 131.345C65.5219 131.825 66.1779 132.065 66.9459 132.065C67.5752 132.065 68.0979 131.921 68.5139 131.633C68.9405 131.335 69.2392 130.94 69.4099 130.449H70.9779C70.7432 131.292 70.2739 131.98 69.5699 132.513C68.8659 133.036 67.9912 133.297 66.9459 133.297C66.1139 133.297 65.3672 133.111 64.7059 132.737C64.0552 132.364 63.5432 131.836 63.1699 131.153C62.7965 130.46 62.6099 129.66 62.6099 128.753C62.6099 127.847 62.7912 127.052 63.1539 126.369C63.5165 125.687 64.0232 125.164 64.6739 124.801C65.3352 124.428 66.0925 124.241 66.9459 124.241C67.7779 124.241 68.5139 124.423 69.1539 124.785C69.7939 125.148 70.2845 125.649 70.6259 126.289C70.9779 126.919 71.1539 127.633 71.1539 128.433ZM69.6499 128.129C69.6499 127.575 69.5272 127.1 69.2819 126.705C69.0365 126.3 68.7005 125.996 68.2739 125.793C67.8579 125.58 67.3939 125.473 66.8819 125.473C66.1459 125.473 65.5165 125.708 64.9939 126.177C64.4819 126.647 64.1885 127.297 64.1139 128.129H69.6499ZM74.8518 125.585V130.753C74.8518 131.18 74.9424 131.484 75.1238 131.665C75.3051 131.836 75.6198 131.921 76.0677 131.921H77.1398V133.153H75.8278C75.0171 133.153 74.4091 132.967 74.0038 132.593C73.5984 132.22 73.3958 131.607 73.3958 130.753V125.585H72.2598V124.385H73.3958V122.177H74.8518V124.385H77.1398V125.585H74.8518ZM86.9039 128.433C86.9039 128.711 86.8879 129.004 86.8559 129.313H79.8479C79.9012 130.177 80.1945 130.855 80.7279 131.345C81.2719 131.825 81.9279 132.065 82.6959 132.065C83.3252 132.065 83.8479 131.921 84.2639 131.633C84.6905 131.335 84.9892 130.94 85.1599 130.449H86.7279C86.4932 131.292 86.0239 131.98 85.3199 132.513C84.6159 133.036 83.7412 133.297 82.6959 133.297C81.8639 133.297 81.1172 133.111 80.4559 132.737C79.8052 132.364 79.2932 131.836 78.9199 131.153C78.5465 130.46 78.3599 129.66 78.3599 128.753C78.3599 127.847 78.5412 127.052 78.9039 126.369C79.2665 125.687 79.7732 125.164 80.4239 124.801C81.0852 124.428 81.8425 124.241 82.6959 124.241C83.5279 124.241 84.2639 124.423 84.9039 124.785C85.5439 125.148 86.0345 125.649 86.3759 126.289C86.7279 126.919 86.9039 127.633 86.9039 128.433ZM85.3999 128.129C85.3999 127.575 85.2772 127.1 85.0319 126.705C84.7865 126.3 84.4505 125.996 84.0239 125.793C83.6079 125.58 83.1439 125.473 82.6319 125.473C81.8959 125.473 81.2665 125.708 80.7439 126.177C80.2319 126.647 79.9385 127.297 79.8639 128.129H85.3999ZM90.2818 125.809C90.5378 125.308 90.9004 124.919 91.3698 124.641C91.8498 124.364 92.4311 124.225 93.1138 124.225V125.729H92.7298C91.0978 125.729 90.2818 126.615 90.2818 128.385V133.153H88.8258V124.385H90.2818V125.809ZM95.5465 122.961C95.2692 122.961 95.0345 122.865 94.8425 122.673C94.6505 122.481 94.5545 122.247 94.5545 121.969C94.5545 121.692 94.6505 121.457 94.8425 121.265C95.0345 121.073 95.2692 120.977 95.5465 120.977C95.8132 120.977 96.0372 121.073 96.2185 121.265C96.4105 121.457 96.5065 121.692 96.5065 121.969C96.5065 122.247 96.4105 122.481 96.2185 122.673C96.0372 122.865 95.8132 122.961 95.5465 122.961ZM96.2505 124.385V133.153H94.7945V124.385H96.2505ZM103.004 124.225C104.071 124.225 104.935 124.551 105.596 125.201C106.257 125.841 106.588 126.769 106.588 127.985V133.153H105.148V128.193C105.148 127.319 104.929 126.652 104.492 126.193C104.055 125.724 103.457 125.489 102.7 125.489C101.932 125.489 101.319 125.729 100.86 126.209C100.412 126.689 100.188 127.388 100.188 128.305V133.153H98.732V124.385H100.188V125.633C100.476 125.185 100.865 124.839 101.356 124.593C101.857 124.348 102.407 124.225 103.004 124.225ZM108.422 128.737C108.422 127.841 108.604 127.057 108.966 126.385C109.329 125.703 109.825 125.175 110.454 124.801C111.094 124.428 111.804 124.241 112.582 124.241C113.35 124.241 114.017 124.407 114.582 124.737C115.148 125.068 115.569 125.484 115.846 125.985V124.385H117.318V133.153H115.846V131.521C115.558 132.033 115.126 132.46 114.55 132.801C113.985 133.132 113.324 133.297 112.566 133.297C111.788 133.297 111.084 133.105 110.454 132.721C109.825 132.337 109.329 131.799 108.966 131.105C108.604 130.412 108.422 129.623 108.422 128.737ZM115.846 128.753C115.846 128.092 115.713 127.516 115.446 127.025C115.18 126.535 114.817 126.161 114.358 125.905C113.91 125.639 113.414 125.505 112.87 125.505C112.326 125.505 111.83 125.633 111.382 125.889C110.934 126.145 110.577 126.519 110.31 127.009C110.044 127.5 109.91 128.076 109.91 128.737C109.91 129.409 110.044 129.996 110.31 130.497C110.577 130.988 110.934 131.367 111.382 131.633C111.83 131.889 112.326 132.017 112.87 132.017C113.414 132.017 113.91 131.889 114.358 131.633C114.817 131.367 115.18 130.988 115.446 130.497C115.713 129.996 115.846 129.415 115.846 128.753ZM121.235 125.809C121.491 125.308 121.854 124.919 122.323 124.641C122.803 124.364 123.384 124.225 124.067 124.225V125.729H123.683C122.051 125.729 121.235 126.615 121.235 128.385V133.153H119.779V124.385H121.235V125.809ZM126.5 122.961C126.222 122.961 125.988 122.865 125.796 122.673C125.604 122.481 125.508 122.247 125.508 121.969C125.508 121.692 125.604 121.457 125.796 121.265C125.988 121.073 126.222 120.977 126.5 120.977C126.766 120.977 126.99 121.073 127.172 121.265C127.364 121.457 127.46 121.692 127.46 121.969C127.46 122.247 127.364 122.481 127.172 122.673C126.99 122.865 126.766 122.961 126.5 122.961ZM127.204 124.385V133.153H125.748V124.385H127.204ZM129.141 128.737C129.141 127.841 129.322 127.057 129.685 126.385C130.048 125.703 130.544 125.175 131.173 124.801C131.813 124.428 132.522 124.241 133.301 124.241C134.069 124.241 134.736 124.407 135.301 124.737C135.866 125.068 136.288 125.484 136.565 125.985V124.385H138.037V133.153H136.565V131.521C136.277 132.033 135.845 132.46 135.269 132.801C134.704 133.132 134.042 133.297 133.285 133.297C132.506 133.297 131.802 133.105 131.173 132.721C130.544 132.337 130.048 131.799 129.685 131.105C129.322 130.412 129.141 129.623 129.141 128.737ZM136.565 128.753C136.565 128.092 136.432 127.516 136.165 127.025C135.898 126.535 135.536 126.161 135.077 125.905C134.629 125.639 134.133 125.505 133.589 125.505C133.045 125.505 132.549 125.633 132.101 125.889C131.653 126.145 131.296 126.519 131.029 127.009C130.762 127.5 130.629 128.076 130.629 128.737C130.629 129.409 130.762 129.996 131.029 130.497C131.296 130.988 131.653 131.367 132.101 131.633C132.549 131.889 133.045 132.017 133.589 132.017C134.133 132.017 134.629 131.889 135.077 131.633C135.536 131.367 135.898 130.988 136.165 130.497C136.432 129.996 136.565 129.415 136.565 128.753ZM153.323 133.153L151.867 131.681C151.323 132.247 150.742 132.668 150.123 132.945C149.505 133.212 148.806 133.345 148.027 133.345C147.259 133.345 146.577 133.207 145.979 132.929C145.393 132.652 144.934 132.257 144.603 131.745C144.283 131.233 144.123 130.636 144.123 129.953C144.123 129.175 144.342 128.492 144.779 127.905C145.227 127.308 145.883 126.839 146.747 126.497C146.406 126.092 146.161 125.719 146.011 125.377C145.862 125.036 145.787 124.663 145.787 124.257C145.787 123.788 145.905 123.367 146.139 122.993C146.385 122.609 146.731 122.311 147.179 122.097C147.627 121.884 148.145 121.777 148.731 121.777C149.307 121.777 149.809 121.889 150.235 122.113C150.662 122.337 150.982 122.652 151.195 123.057C151.409 123.452 151.505 123.895 151.483 124.385H150.027C150.038 123.948 149.915 123.607 149.659 123.361C149.403 123.105 149.073 122.977 148.667 122.977C148.241 122.977 147.894 123.1 147.627 123.345C147.371 123.58 147.243 123.884 147.243 124.257C147.243 124.577 147.329 124.887 147.499 125.185C147.681 125.484 147.979 125.852 148.395 126.289L151.723 129.633L152.011 129.185L153.099 127.361H154.667L153.355 129.633C153.174 129.953 152.961 130.289 152.715 130.641L155.227 133.153H153.323ZM148.027 132.097C148.603 132.097 149.121 131.985 149.579 131.761C150.049 131.537 150.491 131.191 150.907 130.721L147.627 127.425C146.262 127.948 145.579 128.775 145.579 129.905C145.579 130.535 145.803 131.057 146.251 131.473C146.71 131.889 147.302 132.097 148.027 132.097ZM162.313 123.185V126.913H166.377V128.113H162.313V131.953H166.857V133.153H160.857V121.985H166.857V123.185H162.313ZM172.164 133.297C171.492 133.297 170.889 133.185 170.356 132.961C169.823 132.727 169.401 132.407 169.092 132.001C168.783 131.585 168.612 131.111 168.58 130.577H170.084C170.127 131.015 170.329 131.372 170.692 131.649C171.065 131.927 171.551 132.065 172.148 132.065C172.703 132.065 173.14 131.943 173.46 131.697C173.78 131.452 173.94 131.143 173.94 130.769C173.94 130.385 173.769 130.103 173.428 129.921C173.087 129.729 172.559 129.543 171.844 129.361C171.193 129.191 170.66 129.02 170.244 128.849C169.839 128.668 169.487 128.407 169.188 128.065C168.9 127.713 168.756 127.255 168.756 126.689C168.756 126.241 168.889 125.831 169.156 125.457C169.423 125.084 169.801 124.791 170.292 124.577C170.783 124.353 171.343 124.241 171.972 124.241C172.943 124.241 173.727 124.487 174.324 124.977C174.921 125.468 175.241 126.14 175.284 126.993H173.828C173.796 126.535 173.609 126.167 173.268 125.889C172.937 125.612 172.489 125.473 171.924 125.473C171.401 125.473 170.985 125.585 170.676 125.809C170.367 126.033 170.212 126.327 170.212 126.689C170.212 126.977 170.303 127.217 170.484 127.409C170.676 127.591 170.911 127.74 171.188 127.857C171.476 127.964 171.871 128.087 172.372 128.225C173.001 128.396 173.513 128.567 173.908 128.737C174.303 128.897 174.639 129.143 174.916 129.473C175.204 129.804 175.353 130.236 175.364 130.769C175.364 131.249 175.231 131.681 174.964 132.065C174.697 132.449 174.319 132.753 173.828 132.977C173.348 133.191 172.793 133.297 172.164 133.297ZM179.196 125.585V130.753C179.196 131.18 179.286 131.484 179.468 131.665C179.649 131.836 179.964 131.921 180.411 131.921H181.484V133.153H180.172C179.361 133.153 178.753 132.967 178.348 132.593C177.942 132.22 177.74 131.607 177.74 130.753V125.585H176.604V124.385H177.74V122.177H179.196V124.385H181.484V125.585H179.196ZM191.248 128.433C191.248 128.711 191.232 129.004 191.2 129.313H184.192C184.245 130.177 184.538 130.855 185.072 131.345C185.616 131.825 186.272 132.065 187.04 132.065C187.669 132.065 188.192 131.921 188.608 131.633C189.034 131.335 189.333 130.94 189.504 130.449H191.072C190.837 131.292 190.368 131.98 189.664 132.513C188.96 133.036 188.085 133.297 187.04 133.297C186.208 133.297 185.461 133.111 184.8 132.737C184.149 132.364 183.637 131.836 183.264 131.153C182.89 130.46 182.704 129.66 182.704 128.753C182.704 127.847 182.885 127.052 183.248 126.369C183.61 125.687 184.117 125.164 184.768 124.801C185.429 124.428 186.186 124.241 187.04 124.241C187.872 124.241 188.608 124.423 189.248 124.785C189.888 125.148 190.378 125.649 190.72 126.289C191.072 126.919 191.248 127.633 191.248 128.433ZM189.744 128.129C189.744 127.575 189.621 127.1 189.376 126.705C189.13 126.3 188.794 125.996 188.368 125.793C187.952 125.58 187.488 125.473 186.976 125.473C186.24 125.473 185.61 125.708 185.088 126.177C184.576 126.647 184.282 127.297 184.208 128.129H189.744ZM188.544 121.905L185.136 123.729V122.641L188.544 120.641V121.905ZM194.946 125.585V130.753C194.946 131.18 195.036 131.484 195.218 131.665C195.399 131.836 195.714 131.921 196.161 131.921H197.234V133.153H195.922C195.111 133.153 194.503 132.967 194.098 132.593C193.692 132.22 193.49 131.607 193.49 130.753V125.585H192.354V124.385H193.49V122.177H194.946V124.385H197.234V125.585H194.946ZM199.75 122.961C199.472 122.961 199.238 122.865 199.046 122.673C198.854 122.481 198.758 122.247 198.758 121.969C198.758 121.692 198.854 121.457 199.046 121.265C199.238 121.073 199.472 120.977 199.75 120.977C200.016 120.977 200.24 121.073 200.422 121.265C200.614 121.457 200.71 121.692 200.71 121.969C200.71 122.247 200.614 122.481 200.422 122.673C200.24 122.865 200.016 122.961 199.75 122.961ZM200.454 124.385V133.153H198.998V124.385H200.454ZM202.391 128.753C202.391 127.847 202.572 127.057 202.935 126.385C203.298 125.703 203.799 125.175 204.439 124.801C205.09 124.428 205.831 124.241 206.663 124.241C207.74 124.241 208.626 124.503 209.319 125.025C210.023 125.548 210.487 126.273 210.711 127.201H209.143C208.994 126.668 208.7 126.247 208.263 125.937C207.836 125.628 207.303 125.473 206.663 125.473C205.831 125.473 205.159 125.761 204.647 126.337C204.135 126.903 203.879 127.708 203.879 128.753C203.879 129.809 204.135 130.625 204.647 131.201C205.159 131.777 205.831 132.065 206.663 132.065C207.303 132.065 207.836 131.916 208.263 131.617C208.69 131.319 208.983 130.892 209.143 130.337H210.711C210.476 131.233 210.007 131.953 209.303 132.497C208.599 133.031 207.719 133.297 206.663 133.297C205.831 133.297 205.09 133.111 204.439 132.737C203.799 132.364 203.298 131.836 202.935 131.153C202.572 130.471 202.391 129.671 202.391 128.753ZM212.11 128.737C212.11 127.841 212.291 127.057 212.654 126.385C213.017 125.703 213.513 125.175 214.142 124.801C214.782 124.428 215.491 124.241 216.27 124.241C217.038 124.241 217.705 124.407 218.27 124.737C218.835 125.068 219.257 125.484 219.534 125.985V124.385H221.006V133.153H219.534V131.521C219.246 132.033 218.814 132.46 218.238 132.801C217.673 133.132 217.011 133.297 216.254 133.297C215.475 133.297 214.771 133.105 214.142 132.721C213.513 132.337 213.017 131.799 212.654 131.105C212.291 130.412 212.11 129.623 212.11 128.737ZM219.534 128.753C219.534 128.092 219.401 127.516 219.134 127.025C218.867 126.535 218.505 126.161 218.046 125.905C217.598 125.639 217.102 125.505 216.558 125.505C216.014 125.505 215.518 125.633 215.07 125.889C214.622 126.145 214.265 126.519 213.998 127.009C213.731 127.5 213.598 128.076 213.598 128.737C213.598 129.409 213.731 129.996 213.998 130.497C214.265 130.988 214.622 131.367 215.07 131.633C215.518 131.889 216.014 132.017 216.558 132.017C217.102 132.017 217.598 131.889 218.046 131.633C218.505 131.367 218.867 130.988 219.134 130.497C219.401 129.996 219.534 129.415 219.534 128.753ZM227.188 127.569C227.188 126.481 227.433 125.505 227.924 124.641C228.415 123.767 229.081 123.084 229.924 122.593C230.777 122.103 231.721 121.857 232.756 121.857C233.972 121.857 235.033 122.151 235.94 122.737C236.847 123.324 237.508 124.156 237.924 125.233H236.18C235.871 124.561 235.423 124.044 234.836 123.681C234.26 123.319 233.567 123.137 232.756 123.137C231.977 123.137 231.279 123.319 230.66 123.681C230.041 124.044 229.556 124.561 229.204 125.233C228.852 125.895 228.676 126.673 228.676 127.569C228.676 128.455 228.852 129.233 229.204 129.905C229.556 130.567 230.041 131.079 230.66 131.441C231.279 131.804 231.977 131.985 232.756 131.985C233.567 131.985 234.26 131.809 234.836 131.457C235.423 131.095 235.871 130.577 236.18 129.905H237.924C237.508 130.972 236.847 131.799 235.94 132.385C235.033 132.961 233.972 133.249 232.756 133.249C231.721 133.249 230.777 133.009 229.924 132.529C229.081 132.039 228.415 131.361 227.924 130.497C227.433 129.633 227.188 128.657 227.188 127.569ZM239.547 128.737C239.547 127.841 239.729 127.057 240.091 126.385C240.454 125.703 240.95 125.175 241.579 124.801C242.219 124.428 242.929 124.241 243.707 124.241C244.475 124.241 245.142 124.407 245.707 124.737C246.273 125.068 246.694 125.484 246.971 125.985V124.385H248.443V133.153H246.971V131.521C246.683 132.033 246.251 132.46 245.675 132.801C245.11 133.132 244.449 133.297 243.691 133.297C242.913 133.297 242.209 133.105 241.579 132.721C240.95 132.337 240.454 131.799 240.091 131.105C239.729 130.412 239.547 129.623 239.547 128.737ZM246.971 128.753C246.971 128.092 246.838 127.516 246.571 127.025C246.305 126.535 245.942 126.161 245.483 125.905C245.035 125.639 244.539 125.505 243.995 125.505C243.451 125.505 242.955 125.633 242.507 125.889C242.059 126.145 241.702 126.519 241.435 127.009C241.169 127.5 241.035 128.076 241.035 128.737C241.035 129.409 241.169 129.996 241.435 130.497C241.702 130.988 242.059 131.367 242.507 131.633C242.955 131.889 243.451 132.017 243.995 132.017C244.539 132.017 245.035 131.889 245.483 131.633C245.942 131.367 246.305 130.988 246.571 130.497C246.838 129.996 246.971 129.415 246.971 128.753ZM255.176 124.225C256.243 124.225 257.107 124.551 257.768 125.201C258.429 125.841 258.76 126.769 258.76 127.985V133.153H257.32V128.193C257.32 127.319 257.101 126.652 256.664 126.193C256.227 125.724 255.629 125.489 254.872 125.489C254.104 125.489 253.491 125.729 253.032 126.209C252.584 126.689 252.36 127.388 252.36 128.305V133.153H250.904V124.385H252.36V125.633C252.648 125.185 253.037 124.839 253.528 124.593C254.029 124.348 254.579 124.225 255.176 124.225ZM261.89 122.961C261.613 122.961 261.378 122.865 261.186 122.673C260.994 122.481 260.898 122.247 260.898 121.969C260.898 121.692 260.994 121.457 261.186 121.265C261.378 121.073 261.613 120.977 261.89 120.977C262.157 120.977 262.381 121.073 262.562 121.265C262.754 121.457 262.85 121.692 262.85 121.969C262.85 122.247 262.754 122.481 262.562 122.673C262.381 122.865 262.157 122.961 261.89 122.961ZM262.594 124.385V133.153H261.138V124.385H262.594ZM269.348 124.225C270.414 124.225 271.278 124.551 271.94 125.201C272.601 125.841 272.932 126.769 272.932 127.985V133.153H271.492V128.193C271.492 127.319 271.273 126.652 270.836 126.193C270.398 125.724 269.801 125.489 269.044 125.489C268.276 125.489 267.662 125.729 267.204 126.209C266.756 126.689 266.532 127.388 266.532 128.305V133.153H265.076V124.385H266.532V125.633C266.82 125.185 267.209 124.839 267.7 124.593C268.201 124.348 268.75 124.225 269.348 124.225ZM274.766 128.737C274.766 127.841 274.947 127.057 275.31 126.385C275.673 125.703 276.169 125.175 276.798 124.801C277.438 124.428 278.147 124.241 278.926 124.241C279.694 124.241 280.361 124.407 280.926 124.737C281.491 125.068 281.913 125.484 282.19 125.985V124.385H283.662V133.153H282.19V131.521C281.902 132.033 281.47 132.46 280.894 132.801C280.329 133.132 279.667 133.297 278.91 133.297C278.131 133.297 277.427 133.105 276.798 132.721C276.169 132.337 275.673 131.799 275.31 131.105C274.947 130.412 274.766 129.623 274.766 128.737ZM282.19 128.753C282.19 128.092 282.057 127.516 281.79 127.025C281.523 126.535 281.161 126.161 280.702 125.905C280.254 125.639 279.758 125.505 279.214 125.505C278.67 125.505 278.174 125.633 277.726 125.889C277.278 126.145 276.921 126.519 276.654 127.009C276.387 127.5 276.254 128.076 276.254 128.737C276.254 129.409 276.387 129.996 276.654 130.497C276.921 130.988 277.278 131.367 277.726 131.633C278.174 131.889 278.67 132.017 279.214 132.017C279.758 132.017 280.254 131.889 280.702 131.633C281.161 131.367 281.523 130.988 281.79 130.497C282.057 129.996 282.19 129.415 282.19 128.753Z" fill="#656565"/>
</svg>
